<svg width="121" height="122" viewBox="0 0 121 122" fill="none" xmlns="http://www.w3.org/2000/svg">
<g clip-path="url(#clip0_415_3778)">
<path d="M60.7755 110.888C88.0446 110.888 110.151 88.7817 110.151 61.5126C110.151 34.2434 88.0446 12.1375 60.7755 12.1375C33.5064 12.1375 11.4004 34.2434 11.4004 61.5126C11.4004 88.7817 33.5064 110.888 60.7755 110.888Z" fill="#5CCFE2"/>
<path d="M60.7521 120.739C93.475 120.739 120.002 94.2118 120.002 61.4889C120.002 28.7659 93.475 2.23877 60.7521 2.23877C28.0291 2.23877 1.50195 28.7659 1.50195 61.4889C1.50195 94.2118 28.0291 120.739 60.7521 120.739Z" stroke="#5CCFE2" stroke-opacity="0.75" stroke-width="1.5"/>
<path fill-rule="evenodd" clip-rule="evenodd" d="M63.6958 32.2638C63.4831 32.2818 63.2883 32.3833 63.1543 32.5461L60.0595 36.3025H68.9641L64.2883 32.4503C64.1216 32.313 63.9085 32.2459 63.6958 32.2638ZM72.8554 37.8823L80.2393 45.6666H73.6698C73.3115 45.6666 72.8554 44.9988 72.8554 44.4741V37.8823ZM44.4057 38.6773C44.4057 38.4665 44.4915 38.2643 44.6442 38.1152C44.797 37.9661 45.0041 37.8823 45.2201 37.8823H71.2266V44.4741C71.2266 45.7604 72.2935 47.2566 73.6698 47.2566H80.2393V84.7884C80.2393 84.9992 80.1535 85.2014 80.0008 85.3505C79.848 85.4996 79.6409 85.5834 79.4249 85.5834H45.2201C44.764 85.5834 44.4057 85.2336 44.4057 84.7884V38.6773ZM72.9097 52.6295H51.7353C51.5193 52.6295 51.3122 52.5457 51.1594 52.3966C51.0067 52.2475 50.9209 52.0453 50.9209 51.8344C50.9209 51.6236 51.0067 51.4214 51.1594 51.2723C51.3122 51.1232 51.5193 51.0394 51.7353 51.0394H72.9097C73.1257 51.0394 73.3328 51.1232 73.4856 51.2723C73.6383 51.4214 73.7241 51.6236 73.7241 51.8344C73.7241 52.0453 73.6383 52.2475 73.4856 52.3966C73.3328 52.5457 73.1257 52.6295 72.9097 52.6295ZM51.7353 61.5143H72.9097C73.1257 61.5143 73.3328 61.4305 73.4856 61.2814C73.6383 61.1323 73.7241 60.9301 73.7241 60.7193C73.7241 60.5084 73.6383 60.3062 73.4856 60.1571C73.3328 60.008 73.1257 59.9243 72.9097 59.9243H51.7353C51.5193 59.9243 51.3122 60.008 51.1594 60.1571C51.0067 60.3062 50.9209 60.5084 50.9209 60.7193C50.9209 60.9301 51.0067 61.1323 51.1594 61.2814C51.3122 61.4305 51.5193 61.5143 51.7353 61.5143ZM51.7353 70.2858H72.9097C73.1257 70.2858 73.3328 70.202 73.4856 70.0529C73.6383 69.9038 73.7241 69.7016 73.7241 69.4907C73.7241 69.2799 73.6383 69.0777 73.4856 68.9286C73.3328 68.7795 73.1257 68.6957 72.9097 68.6957H51.7353C51.5193 68.6957 51.3122 68.7795 51.1594 68.9286C51.0067 69.0777 50.9209 69.2799 50.9209 69.4907C50.9209 69.7016 51.0067 69.9038 51.1594 70.0529C51.3122 70.202 51.5193 70.2858 51.7353 70.2858ZM51.7353 78.6203H72.9097C73.1257 78.6203 73.3328 78.5365 73.4856 78.3875C73.6383 78.2384 73.7241 78.0361 73.7241 77.8253C73.7241 77.6144 73.6383 77.4122 73.4856 77.2631C73.3328 77.114 73.1257 77.0303 72.9097 77.0303H51.7353C51.5193 77.0303 51.3122 77.114 51.1594 77.2631C51.0067 77.4122 50.9209 77.6144 50.9209 77.8253C50.9209 78.0361 51.0067 78.2384 51.1594 78.3875C51.3122 78.5365 51.5193 78.6203 51.7353 78.6203ZM42.8257 42.6005V65.5229L37.4448 44.8205C37.3918 44.6164 37.4239 44.3991 37.5342 44.2164C37.6446 44.0337 37.824 43.9005 38.033 43.8462L42.8257 42.6005ZM42.9095 68.1553L36.9693 49.2681L33.4372 51.4776C33.254 51.5922 33.1229 51.7731 33.0724 51.9805C33.022 52.1879 33.0565 52.4048 33.1684 52.5836L42.9095 68.1553Z" fill="white"/>
</g>
<defs>
<clipPath id="clip0_415_3778">
<rect width="121" height="121" fill="white" transform="translate(0 0.5)"/>
</clipPath>
</defs>
</svg>
