<svg width="16" height="15" viewBox="0 0 16 15" fill="none" xmlns="http://www.w3.org/2000/svg">
<path d="M6.47579 0V1.66667H2.30912V13.3333H13.9758V9.16667H15.6425V14.1667C15.6425 14.3877 15.5547 14.5996 15.3984 14.7559C15.2421 14.9122 15.0301 15 14.8091 15H1.47579C1.25478 15 1.04281 14.9122 0.886534 14.7559C0.730253 14.5996 0.642456 14.3877 0.642456 14.1667V0.833333C0.642456 0.61232 0.730253 0.400358 0.886534 0.244078C1.04281 0.0877973 1.25478 0 1.47579 0H6.47579ZM12.8983 3.9225L8.14246 8.67833L6.96412 7.5L11.72 2.74417L8.97579 0H15.6425V6.66667L12.8983 3.9225Z" fill="white"/>
</svg>
