<svg width="649" height="677" viewBox="0 0 649 677" fill="none" xmlns="http://www.w3.org/2000/svg">
<path d="M229.513 587.292C269.281 602.444 317.035 543.178 356.227 536.839C396.663 530.296 460.644 570.871 492.435 545.054C523.249 520.026 496.909 449.765 512.073 410.002C527.225 370.235 593.649 335.327 587.305 296.147C580.762 255.71 506.005 243.407 480.187 211.616C455.147 180.796 458.944 104.783 419.181 89.6182C379.418 74.4538 331.66 133.733 292.468 140.071C252.031 146.614 188.051 106.039 156.26 131.856C125.445 156.884 151.786 227.145 136.621 266.908C121.469 306.676 55.0454 341.583 61.3891 380.763C67.9323 421.2 142.69 433.503 168.507 465.294C193.535 496.109 189.738 572.122 229.501 587.287L229.513 587.292Z" stroke="white" stroke-opacity="0.75" stroke-width="0.75" stroke-miterlimit="10"/>
<path d="M215.792 574.528C253.517 591.88 303.876 537.286 342.447 533.674C382.239 529.948 441.885 573.615 474.516 550.554C506.147 528.201 485.094 458.082 502.445 420.356C519.797 382.631 586.72 352.981 583.108 314.41C579.382 274.618 507.4 257.765 484.327 225.13C461.974 193.498 470.628 119.733 432.915 102.387C395.189 85.0359 344.831 139.629 306.259 143.241C266.467 146.967 206.821 103.301 174.191 126.362C142.56 148.715 163.612 218.834 146.261 256.559C128.91 294.285 61.9746 323.929 65.5865 362.5C69.3128 402.292 141.294 419.145 164.367 451.781C186.72 483.412 178.066 557.177 215.78 574.523L215.792 574.528Z" stroke="white" stroke-opacity="0.75" stroke-width="0.75" stroke-miterlimit="10"/>
<path d="M203.336 561.069C238.91 580.401 291.461 530.579 329.216 529.582C368.173 528.549 423.359 574.926 456.616 554.617C488.856 534.923 472.928 465.335 492.272 429.765C511.605 394.191 578.667 369.705 577.671 331.95C576.638 292.993 507.701 271.905 487.38 238.642C467.687 206.402 480.93 135.215 445.36 115.871C409.786 96.5383 357.235 146.361 319.48 147.357C280.524 148.39 225.338 102.014 192.08 122.323C158.823 142.632 175.768 211.605 156.424 247.174C137.091 282.749 70.0288 307.235 71.0252 344.99C72.0581 383.946 140.995 405.035 161.316 438.297C181.01 470.537 167.766 541.724 203.336 561.069Z" stroke="white" stroke-opacity="0.75" stroke-width="0.75" stroke-miterlimit="10"/>
<path d="M192.188 547.017C225.522 568.136 279.866 523.116 316.647 524.597C354.595 526.127 405.23 574.817 438.895 557.24C471.519 540.196 460.578 471.495 481.697 438.161C502.816 404.827 569.621 385.394 571.103 348.613C572.633 310.665 506.974 285.668 489.396 252.004C472.353 219.38 489.853 151.017 456.536 129.891C423.202 108.772 368.858 153.793 332.077 152.311C294.129 150.781 243.493 102.091 209.829 119.669C176.165 137.246 188.146 205.413 167.027 238.747C145.908 272.082 79.1026 291.514 77.621 328.296C76.1395 365.077 141.75 391.24 159.328 424.904C176.371 457.529 158.871 525.891 192.188 547.017Z" stroke="white" stroke-opacity="0.75" stroke-width="0.75" stroke-miterlimit="10"/>
<path d="M182.351 532.502C213.36 555.2 269.095 514.985 304.742 518.819C341.506 522.782 387.548 573.381 421.392 558.496C454.203 544.062 448.048 476.593 470.734 445.578C493.42 414.563 559.591 400.025 563.42 364.391C567.383 327.626 505.219 299.055 490.321 265.206C475.887 232.395 497.353 167.106 466.339 144.42C435.324 121.734 379.594 161.937 343.948 158.103C307.183 154.14 261.142 103.541 227.297 118.426C194.486 132.86 200.641 200.33 177.955 231.344C155.257 262.354 89.0978 276.897 85.2566 312.526C81.2941 349.291 143.459 377.862 158.356 411.711C172.79 444.522 151.324 509.811 182.338 532.497L182.351 532.502Z" stroke="white" stroke-opacity="0.75" stroke-width="0.75" stroke-miterlimit="10"/>
<path d="M173.853 517.623C202.476 541.675 259.219 506.26 293.574 512.309C327.929 518.358 370.427 570.681 404.252 558.419C437.045 546.536 435.454 480.62 459.506 451.997C483.557 423.374 548.757 413.545 554.794 379.185C561.033 343.738 502.535 311.965 490.266 278.123C478.383 245.33 503.464 183.338 474.841 159.287C446.218 135.236 389.475 170.651 355.12 164.601C319.673 158.363 278.268 106.23 244.442 118.492C211.649 130.374 213.24 196.291 189.189 224.914C165.137 253.537 99.942 263.353 93.9049 297.713C87.8677 332.073 146.165 364.933 158.434 398.775C170.316 431.568 145.235 493.56 173.858 517.611L173.853 517.623Z" stroke="white" stroke-opacity="0.75" stroke-width="0.75" stroke-miterlimit="10"/>
<path d="M166.687 502.505C192.898 527.698 250.243 497.027 283.19 505.128C317.174 513.48 353.952 566.751 387.578 557.065C420.166 547.67 422.906 483.622 448.105 457.399C473.304 431.176 537.187 425.896 545.282 392.962C553.635 358.978 498.948 324.337 489.244 290.719C479.849 258.131 508.213 199.611 482.002 174.418C455.791 149.224 398.446 179.895 365.5 171.795C331.516 163.442 294.737 110.171 261.111 119.858C228.523 129.253 225.783 193.3 200.584 219.523C175.386 245.747 111.503 251.026 103.407 283.96C95.0547 317.944 149.741 352.585 159.445 386.204C168.84 418.792 140.476 477.311 166.687 502.505Z" stroke="white" stroke-opacity="0.75" stroke-width="0.75" stroke-miterlimit="10"/>
<path d="M160.852 487.247C184.626 513.372 242.207 487.362 273.611 497.357C305.015 507.353 338.209 561.7 371.439 554.478C403.645 547.481 410.461 485.567 436.586 461.793C462.711 438.02 524.994 437.042 534.973 405.645C545.276 373.241 494.514 336.109 487.299 302.896C480.302 270.69 511.606 215.812 487.837 189.675C464.069 163.539 406.482 189.561 375.078 179.565C342.674 169.262 310.481 115.222 277.25 122.445C245.045 129.441 238.228 191.355 212.103 215.129C185.979 238.903 123.695 239.88 113.717 271.277C103.738 302.674 154.175 340.814 161.391 374.027C168.387 406.232 137.083 461.11 160.852 487.247Z" stroke="white" stroke-opacity="0.75" stroke-width="0.75" stroke-miterlimit="10"/>
<path d="M156.332 471.957C177.667 498.812 235.13 477.357 264.897 489.064C295.609 501.142 323.292 555.568 355.94 550.745C387.586 546.058 398.213 486.537 425.056 465.197C451.899 443.856 512.291 446.957 523.999 417.19C536.077 386.478 489.316 347.215 484.493 314.568C479.806 282.921 513.691 231.791 492.356 204.936C471.02 178.081 413.558 199.536 383.791 187.829C353.079 175.751 325.395 121.325 292.748 126.148C261.101 130.835 250.474 190.356 223.631 211.696C196.788 233.037 136.396 229.936 124.688 259.703C112.981 289.47 159.371 329.678 164.194 362.325C168.881 393.972 134.997 445.102 156.332 471.957Z" stroke="white" stroke-opacity="0.75" stroke-width="0.75" stroke-miterlimit="10"/>
<path d="M153.104 456.755C172.01 484.116 229.009 467.083 257.059 480.354C285.991 494.041 309.255 548.505 341.163 545.945C372.096 543.459 386.227 486.545 413.6 467.644C440.961 448.739 499.203 455.651 512.469 427.614C526.155 398.681 483.443 357.651 480.882 325.743C478.397 294.81 514.503 247.533 495.602 220.16C476.702 192.787 419.697 209.832 391.648 196.561C362.715 182.875 339.452 128.41 307.544 130.971C276.611 133.457 262.479 190.37 235.106 209.271C207.746 228.177 149.504 221.264 136.238 249.301C122.551 278.234 165.263 319.265 167.824 351.173C170.31 382.106 134.204 429.382 153.104 456.755Z" stroke="white" stroke-opacity="0.75" stroke-width="0.75" stroke-miterlimit="10"/>
<path d="M151.129 441.737C167.628 469.413 223.846 456.641 250.101 471.286C277.189 486.397 296.151 540.549 327.166 540.143C357.23 539.75 374.584 485.639 402.265 469.128C429.946 452.616 485.802 463.084 500.435 436.824C515.546 409.736 476.912 367.308 476.505 336.294C476.113 306.229 514.077 262.854 497.578 235.178C481.079 207.502 424.861 220.274 398.606 205.629C371.518 190.518 352.555 136.366 321.541 136.773C291.477 137.165 274.123 191.276 246.442 207.788C218.761 224.299 162.905 213.831 148.272 240.091C133.161 267.179 171.795 309.607 172.202 340.621C172.594 370.686 134.63 414.061 151.129 441.737Z" stroke="white" stroke-opacity="0.75" stroke-width="0.75" stroke-miterlimit="10"/>
<path d="M150.369 426.99C164.515 454.788 219.632 446.085 244.051 461.929C269.235 478.267 284.036 531.809 314.029 533.417C343.086 534.973 363.355 483.85 391.159 469.693C418.958 455.547 472.231 469.259 488.07 444.852C504.408 419.668 469.851 376.185 471.466 346.209C473.023 317.152 512.5 277.717 498.354 249.919C484.209 222.12 429.092 230.823 404.672 214.979C379.489 198.641 364.687 145.099 334.694 143.491C305.637 141.935 285.368 193.058 257.564 207.215C229.76 221.373 176.493 207.649 160.653 232.056C144.315 257.24 178.872 300.723 177.257 330.699C175.701 359.756 136.224 399.191 150.369 426.99Z" stroke="white" stroke-opacity="0.75" stroke-width="0.75" stroke-miterlimit="10"/>
<path d="M150.78 412.621C162.636 440.355 216.362 435.526 238.893 452.39C262.132 469.781 272.952 522.388 301.78 525.878C329.709 529.261 352.57 481.248 380.305 469.391C408.039 457.535 458.546 474.213 475.405 451.694C492.796 428.456 462.268 384.269 465.753 355.453C469.135 327.524 509.771 292.024 497.927 264.295C486.071 236.56 432.344 241.389 409.813 224.525C387.282 207.661 375.755 154.527 346.927 151.037C318.998 147.654 296.136 195.668 268.402 207.524C240.667 219.38 190.161 202.702 173.302 225.221C155.911 248.459 186.439 292.646 182.954 321.462C179.571 349.391 138.936 384.892 150.78 412.621Z" stroke="white" stroke-opacity="0.75" stroke-width="0.75" stroke-miterlimit="10"/>
<path d="M152.307 398.723C161.934 426.218 214.024 425.032 234.643 442.734C255.912 460.996 262.945 512.378 290.493 517.616C317.197 522.684 342.321 477.884 369.804 468.252C397.298 458.626 444.888 477.949 462.59 457.33C480.853 436.06 454.281 391.511 459.502 363.971C464.57 337.267 506.008 305.694 496.382 278.199C486.756 250.705 434.665 251.891 414.046 234.188C392.777 215.926 385.744 164.544 358.196 159.306C331.493 154.238 306.368 199.039 278.886 208.67C251.391 218.296 203.801 198.974 186.099 219.593C167.836 240.862 194.408 285.411 189.188 312.951C184.119 339.655 142.681 371.228 152.307 398.723Z" stroke="white" stroke-opacity="0.75" stroke-width="0.75" stroke-miterlimit="10"/>
<path d="M154.897 385.359C162.395 412.442 212.597 414.649 231.304 433.018C250.012 451.388 254.047 501.877 280.219 508.68C305.593 515.275 332.655 473.78 359.734 466.294C386.817 458.796 431.358 480.466 449.722 461.77C468.668 442.476 445.972 397.889 452.776 371.716C459.371 346.342 501.295 318.635 493.798 291.552C486.3 264.468 436.098 262.261 417.39 243.892C398.096 224.947 394.648 175.034 368.475 168.23C343.102 161.635 316.039 203.131 288.961 210.616C261.877 218.114 217.336 196.445 198.972 215.14C180.027 234.434 202.722 279.022 195.919 305.194C189.324 330.568 147.399 358.275 154.897 385.359Z" stroke="white" stroke-opacity="0.75" stroke-width="0.75" stroke-miterlimit="10"/>
<path d="M158.466 372.622C163.918 399.129 212.034 404.488 228.831 423.353C246.155 442.798 246.251 490.997 270.98 499.222C294.944 507.196 323.622 469.056 350.13 463.603C376.637 458.15 418.067 481.839 436.915 465.049C456.359 447.724 437.42 403.42 445.652 378.707C453.626 354.744 495.701 330.818 490.248 304.311C484.795 277.804 436.68 272.444 419.883 253.579C402.558 234.135 402.462 185.936 377.733 177.71C353.004 169.485 325.091 207.877 298.584 213.329C272.077 218.782 230.646 195.093 211.799 211.883C192.354 229.208 211.293 273.513 203.061 298.225C195.088 322.188 153.013 346.114 158.466 372.622Z" stroke="white" stroke-opacity="0.75" stroke-width="0.75" stroke-miterlimit="10"/>
<path d="M162.959 360.575C166.499 386.361 212.327 394.603 227.219 413.78C242.6 433.563 239.599 479.813 262.781 489.302C285.258 498.493 315.237 463.747 341.036 460.212C366.822 456.671 405.052 482.085 424.234 467.181C444.017 451.8 428.686 408.059 438.163 384.872C447.354 362.395 489.276 342.122 485.748 316.341C482.22 290.559 436.38 282.312 421.487 263.135C406.107 243.352 409.107 197.102 385.926 187.614C363.449 178.422 333.47 213.168 307.671 216.704C281.884 220.244 243.655 194.83 224.473 209.735C205.291 224.639 220.02 268.856 210.544 292.043C201.352 314.52 159.431 334.793 162.959 360.575Z" stroke="white" stroke-opacity="0.75" stroke-width="0.75" stroke-miterlimit="10"/>
<path d="M168.287 349.295C170.013 374.23 213.399 385.074 226.453 404.406C239.919 424.354 234.071 468.474 255.676 479.056C276.621 489.303 307.58 457.93 332.516 456.205C357.451 454.479 392.452 481.277 411.783 468.222C431.732 454.756 419.846 411.867 430.416 390.257C440.663 369.311 482.135 352.581 480.409 327.645C478.684 302.709 435.297 291.865 422.243 272.534C408.777 252.586 414.625 208.466 393.021 197.883C372.075 187.636 341.116 219.009 316.181 220.735C291.245 222.461 256.244 195.663 236.913 208.717C216.965 222.183 228.851 265.073 218.28 286.683C208.033 307.628 166.561 324.359 168.287 349.295Z" stroke="white" stroke-opacity="0.75" stroke-width="0.75" stroke-miterlimit="10"/>
<path d="M174.364 338.816C174.426 362.779 215.222 375.934 226.463 395.259C238.063 415.192 229.646 457.028 249.645 468.535C269.025 479.68 300.644 451.66 324.619 451.602C348.581 451.54 380.351 479.42 399.676 468.179C419.001 456.938 410.994 414.784 422.496 394.796C433.642 375.416 474.388 362.069 474.325 338.106C474.263 314.143 433.467 300.988 422.226 281.664C410.626 261.73 419.043 219.895 399.044 208.388C379.664 197.242 348.045 225.262 324.07 225.32C300.096 225.377 268.338 197.502 249.013 208.743C229.08 220.342 237.695 262.139 226.193 282.126C215.047 301.506 174.301 314.854 174.364 338.816Z" stroke="white" stroke-opacity="0.75" stroke-width="0.75" stroke-miterlimit="10"/>
<path d="M181.134 329.202C179.651 352.084 217.767 367.255 227.273 386.42C237.079 406.198 226.356 445.603 244.709 457.86C263.063 470.117 294.486 445.002 317.38 446.491C340.261 447.974 368.809 476.613 387.982 467.123C407.759 457.317 402.207 416.87 414.465 398.516C426.357 380.724 466.101 370.6 467.577 347.701C469.054 324.802 430.945 309.648 421.438 290.483C411.632 270.705 422.356 231.301 404.003 219.044C386.21 207.152 354.226 231.901 331.332 230.412C308.438 228.924 279.902 200.291 260.73 209.78C241.558 219.269 246.504 260.034 234.247 278.387C222.355 296.179 182.611 306.303 181.134 329.202Z" stroke="white" stroke-opacity="0.75" stroke-width="0.75" stroke-miterlimit="10"/>
<path d="M188.478 320.502C185.614 342.216 220.965 359.095 228.781 377.962C236.855 397.438 224.13 434.298 240.833 447.146C257.027 459.608 289.084 438.077 310.797 440.941C332.511 443.805 357.878 472.933 376.75 465.104C396.227 457.03 393.514 418.123 406.363 401.42C418.824 385.226 457.346 378.104 460.222 356.396C463.086 334.682 427.735 317.804 419.919 298.936C411.845 279.46 424.569 242.601 407.866 229.752C391.673 217.291 359.616 238.821 337.903 235.957C316.189 233.093 290.822 203.965 271.949 211.794C252.473 219.868 255.185 258.775 242.337 275.478C229.875 291.672 191.354 298.794 188.478 320.502Z" stroke="white" stroke-opacity="0.75" stroke-width="0.75" stroke-miterlimit="10"/>
<path d="M196.318 312.726C192.209 333.186 224.742 351.493 230.978 369.937C237.411 388.965 222.963 423.196 238.036 436.486C252.638 449.364 284.488 430.935 304.943 435.055C325.397 439.176 347.663 468.469 366.107 462.233C385.135 455.799 385.033 418.636 398.318 403.576C411.196 388.973 448.275 384.661 452.384 364.201C456.492 343.742 423.96 325.434 417.724 306.99C411.291 287.963 425.738 253.732 410.666 240.442C396.063 227.564 364.213 245.992 343.759 241.872C323.304 237.751 301.038 208.459 282.594 214.695C264.15 220.931 263.668 258.291 250.383 273.351C237.505 287.954 200.426 292.267 196.318 312.726Z" stroke="white" stroke-opacity="0.75" stroke-width="0.75" stroke-miterlimit="10"/>
<path d="M204.551 305.917C199.354 325.059 229.041 344.483 233.783 362.369C238.673 380.817 222.806 412.377 236.237 425.933C249.268 439.077 280.649 423.626 299.792 428.823C318.934 434.02 338.178 463.225 356.068 458.471C373.959 453.718 376.782 418.332 390.343 404.889C403.488 391.858 438.922 390.126 444.119 370.983C449.317 351.841 419.629 332.416 414.887 314.531C409.997 296.083 425.864 264.523 412.434 250.967C399.003 237.411 368.021 253.274 348.878 248.077C329.736 242.88 310.492 213.675 292.602 218.428C274.153 223.319 271.888 258.568 258.327 272.011C245.182 285.042 209.748 286.774 204.551 305.917Z" stroke="white" stroke-opacity="0.75" stroke-width="0.75" stroke-miterlimit="10"/>
<path d="M213.113 300.09C206.977 317.864 233.826 338.122 237.189 355.34C240.653 373.102 223.631 401.943 235.486 415.607C246.972 428.857 277.632 416.233 295.406 422.369C313.181 428.506 329.536 457.336 346.762 453.99C364.523 450.526 368.906 417.342 382.588 405.48C395.838 393.994 429.474 394.593 435.598 376.813C441.722 359.034 414.886 338.781 411.522 321.563C408.058 303.802 425.081 274.96 413.226 261.296C401.74 248.046 371.08 260.67 353.305 254.534C335.531 248.398 319.175 219.567 301.95 222.913C284.724 226.26 279.805 259.561 266.124 271.423C252.873 282.909 219.237 282.31 213.113 300.09Z" stroke="white" stroke-opacity="0.75" stroke-width="0.75" stroke-miterlimit="10"/>
<path d="M221.875 295.248C214.97 311.626 239.006 332.413 241.092 348.864C243.23 365.838 225.37 391.952 235.676 405.592C245.672 418.815 275.383 408.85 291.76 415.756C308.138 422.662 321.732 450.886 338.19 448.817C355.163 446.679 361.381 415.656 375.026 405.337C388.249 395.341 419.93 398.033 426.831 381.667C433.731 365.302 409.7 344.502 407.614 328.051C405.476 311.078 423.337 284.963 413.03 271.323C402.724 257.683 373.323 268.065 356.946 261.159C340.568 254.254 326.974 226.03 310.516 228.098C293.543 230.236 287.325 261.259 273.68 271.578C260.457 281.574 228.776 278.883 221.875 295.248Z" stroke="white" stroke-opacity="0.75" stroke-width="0.75" stroke-miterlimit="10"/>
</svg>
