<svg width="121" height="121" viewBox="0 0 121 121" fill="none" xmlns="http://www.w3.org/2000/svg">
<circle cx="60.7755" cy="61.0126" r="49.3751" fill="#1788FB"/>
<circle cx="60.7518" cy="60.9889" r="59.2501" stroke="#1788FB" stroke-opacity="0.75" stroke-width="1.5"/>
<mask id="mask0_66_891" style="mask-type:alpha" maskUnits="userSpaceOnUse" x="33" y="33" width="56" height="56">
<path fill-rule="evenodd" clip-rule="evenodd" d="M72.0664 36.1743L70.6522 37.5885L63.5155 44.7251L62.1014 46.1393L60.6872 47.5535L60.6871 47.5535L59.2729 46.1393L50.8511 37.7175L49.4369 36.3033L52.2653 33.4749L53.6795 34.8891L60.6871 41.8967L67.8238 34.76L69.238 33.3458L72.0664 36.1743ZM77.0602 42.5473L78.4744 41.1331L75.6459 38.3047L74.2317 39.7189L60.7503 53.2004L47.2716 39.7217L45.8573 38.3074L43.0289 41.1359L44.4431 42.5501L59.3349 57.4419L60.7491 58.8561L60.753 58.8522L60.7541 58.8533L62.1684 57.4391L77.0602 42.5473ZM63.0112 60.986L64.4254 59.5718L79.3172 44.68L80.7314 43.2658L83.5599 46.0942L82.1457 47.5085L68.6669 60.9872L82.1485 74.4688L83.5627 75.883L80.7343 78.7114L79.32 77.2972L64.4282 62.4054L63.014 60.9912L63.0152 60.99L63.0112 60.986ZM42.1834 44.6801L40.7692 43.2659L37.9407 46.0943L39.3549 47.5085L52.8365 60.99L39.3578 74.4687L37.9436 75.8829L40.772 78.7114L42.1862 77.2971L57.078 62.4054L58.4922 60.9911L58.4883 60.9872L58.4894 60.9861L57.0752 59.5719L42.1834 44.6801ZM44.4431 79.4299L43.0289 80.8442L45.8573 83.6726L47.2715 82.2584L60.753 68.7768L74.2317 82.2555L75.646 83.6698L78.4744 80.8413L77.0602 79.4271L62.1684 64.5353L60.7542 63.1211L60.7502 63.125L60.7491 63.1239L59.3349 64.5381L44.4431 79.4299ZM73.9999 60.9239L75.4142 59.5097L83.836 51.0879L85.2502 49.6737L88.0786 52.5021L86.6644 53.9163L79.6567 60.9239L86.7934 68.0606L88.2076 69.4748L85.3792 72.3033L83.965 70.8891L75.4142 62.3383L74 60.924L74 60.924L73.9999 60.9239ZM36.1241 49.6738L37.5383 51.088L44.6749 58.2245L46.0891 59.6388L47.5033 61.053L47.5033 61.053L46.0891 62.4672L44.6749 63.8814L37.6673 70.889L36.2531 72.3032L33.4246 69.4748L34.8389 68.0606L41.8464 61.053L34.7099 53.9164L33.2957 52.5022L36.1241 49.6738ZM49.4369 85.8032L50.8511 84.389L59.4019 75.8382L60.8161 74.424L60.8162 74.424L60.8162 74.424L62.2304 75.8382L70.6522 84.26L72.0664 85.6742L69.238 88.5027L67.8238 87.0884L60.8162 80.0808L53.6795 87.2174L52.2653 88.6316L49.4369 85.8032Z" fill="#FEFEFE"/>
</mask>
<g mask="url(#mask0_66_891)">
<circle cx="60.7516" cy="60.9886" r="26.6334" fill="white"/>
</g>
</svg>
