<svg width="513" height="77" viewBox="0 0 513 77" fill="none" xmlns="http://www.w3.org/2000/svg">
<path d="M327.637 16.7824C332.069 16.7824 335.661 13.1899 335.661 8.75839C335.661 4.32685 332.069 0.734375 327.637 0.734375C323.206 0.734375 319.613 4.32685 319.613 8.75839C319.613 13.1899 323.206 16.7824 327.637 16.7824Z" fill="url(#paint0_linear_721_1175)"/>
<path d="M67.8196 64.8845C70.4632 61.9597 72.5387 58.5565 73.9861 54.7704C75.4335 50.9844 76.1692 46.8036 76.1692 42.3417C76.1692 37.3475 75.2421 32.7182 73.4119 28.5852C71.5817 24.4523 68.9859 20.8517 65.6843 17.891C62.3768 14.9184 58.3336 12.5798 53.6683 10.941C48.9911 9.3022 43.7457 8.46484 38.0876 8.46484C32.3996 8.46484 27.1482 9.29622 22.4769 10.947C17.8296 12.5858 13.7924 14.9244 10.4849 17.897C7.18329 20.8636 4.58152 24.4583 2.75728 28.5912C0.927069 32.7241 0 37.3535 0 42.3477C0 47.3718 0.927069 52.0431 2.75728 56.2179C4.5875 60.3986 7.18927 64.0411 10.4908 67.0436C13.8044 70.0581 17.8356 72.4386 22.4829 74.1193C27.1482 75.8059 32.3996 76.6612 38.0816 76.6612C41.9813 76.6612 45.6836 76.2605 49.0928 75.465C52.4901 74.6755 55.672 73.4972 58.5609 71.9721L59.2307 71.6192L59.793 72.1276L63.7345 75.7043H78.1429L67.8973 66.4096L67.1019 65.6859L67.8196 64.8845ZM63.1304 50.5239C62.2632 53.006 61.037 55.2669 59.476 57.2526L58.7642 58.1617L57.9089 57.3842L46.2996 46.8395H31.8972L49.4517 62.7492L50.7496 63.9275L49.1107 64.5555C45.7912 65.8235 42.077 66.4635 38.0816 66.4635C34.3554 66.4635 30.8505 65.8953 27.6745 64.7828C24.4746 63.6643 21.6575 62.0375 19.301 59.9501C16.9325 57.8567 15.0604 55.2968 13.7326 52.3361C12.4048 49.3755 11.7349 46.0141 11.7349 42.3477C11.7349 38.6753 12.4108 35.3259 13.7386 32.3952C15.0664 29.4585 16.9444 26.9404 19.3189 24.9069C21.6755 22.8853 24.4985 21.3182 27.6984 20.2536C30.8744 19.2009 34.3733 18.6626 38.0936 18.6626C41.8138 18.6626 45.3068 19.1949 48.4887 20.2476C51.6886 21.3122 54.4997 22.8733 56.8503 24.9009C59.2068 26.9344 61.0849 29.4525 62.4246 32.3832C63.7704 35.314 64.4522 38.6634 64.4522 42.3358C64.4403 45.2844 63.9977 48.0357 63.1304 50.5239Z" fill="#23202A"/>
<path d="M118.185 66.8822C116.588 67.2172 114.991 67.3846 113.43 67.3846C110.164 67.3846 107.377 66.9719 105.152 66.1585C102.879 65.3271 101.025 64.1369 99.6434 62.6057C98.2618 61.0806 97.2749 59.2324 96.7067 57.1031C96.1564 55.0516 95.8813 52.7549 95.8813 50.2787V26.1211H85.1094V52.1149C85.1094 56.0445 85.5938 59.5853 86.5508 62.6357C87.4839 65.6262 88.9851 68.1741 91.0008 70.2197C93.0164 72.2652 95.66 73.8502 98.8599 74.9268C102.108 76.0213 106.079 76.5776 110.673 76.5776C113.46 76.5776 116.45 76.1768 119.56 75.3814C122.659 74.5919 125.787 73.2641 128.867 71.4279L130.494 70.4589V72.3549V75.7043H141.308V26.1211H130.494V59.8724V60.297L130.201 60.6081C129.274 61.6009 128.149 62.522 126.869 63.3594C125.607 64.1848 124.226 64.8965 122.766 65.4886C121.319 66.0808 119.776 66.5473 118.185 66.8822Z" fill="#23202A"/>
<path d="M173.493 27.9832C170.383 29.4964 167.392 31.3147 164.599 33.3961L162.876 34.676V32.5348V26.165H152.062V75.7063H162.876V46.0282V45.6693L163.092 45.3822C165.556 42.0986 168.798 39.5148 172.727 37.7144C176.262 36.0936 180.353 34.9811 184.911 34.4189L181.818 24.7773C179.061 25.5609 176.268 26.6375 173.493 27.9832Z" fill="#23202A"/>
<path d="M217.75 25.2422C215.609 25.2422 213.36 25.3558 211.07 25.5891C208.773 25.8164 206.446 26.1453 204.143 26.564C201.847 26.9827 199.568 27.4851 197.367 28.0593C195.555 28.5318 193.82 29.0521 192.199 29.6024L195.363 38.1434C196.685 37.5872 198.091 37.0967 199.556 36.6721C201.404 36.1397 203.306 35.6912 205.196 35.3323C207.086 34.9794 208.946 34.7103 210.717 34.5308C212.499 34.3514 214.156 34.2617 215.645 34.2617C218.408 34.2617 220.926 34.5547 223.121 35.1289C225.346 35.7151 227.284 36.5524 228.881 37.6171C230.508 38.7056 231.8 40.0274 232.727 41.5407C233.654 43.0658 234.21 44.7465 234.372 46.5409L234.509 48.06L233.032 47.6773C229.354 46.7322 225.735 46.0145 222.272 45.554C218.809 45.0934 215.478 44.8602 212.361 44.8602C208.175 44.8602 204.466 45.2549 201.338 46.0325C198.252 46.804 195.65 47.8986 193.605 49.2922C191.601 50.6618 190.082 52.3066 189.089 54.1847C188.096 56.0627 187.594 58.1801 187.594 60.4708C187.594 62.7436 188.078 64.8789 189.035 66.8048C189.992 68.7307 191.44 70.4413 193.342 71.8768C195.267 73.3361 197.72 74.5025 200.633 75.3338C203.575 76.1772 207.044 76.6078 210.956 76.6078C213.289 76.6078 215.531 76.4583 217.619 76.1592C219.706 75.8602 221.686 75.4475 223.504 74.9391C225.316 74.4307 227.015 73.8266 228.552 73.1507C230.101 72.4689 231.543 71.7392 232.841 70.9736L234.462 70.0226V71.9007V75.6867H245.275V54.2624C245.275 44.4056 243.003 37.019 238.517 32.3118C234.049 27.6227 227.063 25.2422 217.75 25.2422ZM234.462 56.9779V59.2566V59.7232L234.121 60.0402C233.074 61.0271 231.758 61.984 230.203 62.8991C228.666 63.8023 226.925 64.6157 225.029 65.3035C223.145 65.9914 221.088 66.5536 218.905 66.9723C216.722 67.3909 214.425 67.6063 212.086 67.6063C209.873 67.6063 207.953 67.4089 206.38 67.0261C204.771 66.6373 203.42 66.105 202.367 65.4471C201.255 64.7533 200.423 63.9339 199.897 63.0068C199.371 62.0737 199.101 61.0749 199.101 60.0462C199.101 59.0712 199.353 58.1322 199.855 57.241C200.363 56.3379 201.213 55.5544 202.379 54.9144C203.462 54.3282 204.873 53.8557 206.584 53.5148C208.252 53.1799 210.358 53.0124 212.84 53.0124C214.024 53.0124 215.418 53.0543 216.997 53.144C218.576 53.2337 220.28 53.3892 222.063 53.6105C223.839 53.8318 225.735 54.1368 227.703 54.5196C229.659 54.9024 231.668 55.3809 233.678 55.9431L234.468 56.1644V56.9779H234.462Z" fill="#23202A"/>
<path d="M304.893 31.8333C302.567 29.6682 299.761 28.0174 296.556 26.9169C293.326 25.8104 289.755 25.2422 285.951 25.2422C283.044 25.2422 280.03 25.631 276.991 26.3906C273.959 27.1502 270.729 28.5019 267.38 30.3979L265.771 31.313V29.4648V26.1633H254.957V75.7046H265.771V41.9534V41.4928L266.106 41.1758C267.23 40.1112 268.504 39.1422 269.874 38.2989C271.238 37.4675 272.673 36.7558 274.15 36.1936C275.616 35.6373 277.135 35.1947 278.66 34.8957C280.197 34.5906 281.722 34.4351 283.182 34.4351C285.957 34.4351 288.505 34.8658 290.766 35.7091C293.051 36.5644 295.024 37.8324 296.633 39.4652C298.242 41.104 299.486 43.1376 300.342 45.5061C301.185 47.8507 301.61 50.5302 301.61 53.4729V75.6987H312.381V51.3736C312.381 47.0672 311.706 43.2333 310.378 39.9736C309.068 36.7319 307.22 33.9925 304.893 31.8333Z" fill="#23202A"/>
<path d="M333.74 26.1641H322.926V75.7054H333.74V26.1641Z" fill="#23202A"/>
<path d="M378.56 66.8822C376.963 67.2172 375.366 67.3846 373.805 67.3846C370.539 67.3846 367.752 66.9719 365.527 66.1585C363.254 65.3271 361.4 64.1369 360.018 62.6057C358.637 61.0806 357.65 59.2264 357.082 57.1031C356.531 55.0516 356.256 52.7549 356.256 50.2787V26.1211H345.484V52.1149C345.484 56.0445 345.969 59.5853 346.926 62.6357C347.859 65.6262 349.36 68.1741 351.376 70.2197C353.391 72.2652 356.035 73.8502 359.235 74.9268C362.483 76.0213 366.454 76.5776 371.048 76.5776C373.835 76.5776 376.825 76.1768 379.935 75.3814C383.034 74.5919 386.162 73.2641 389.242 71.4279L390.869 70.4589V72.3549V75.7043H401.683V26.1211H390.869V59.8724V60.297L390.576 60.6081C389.649 61.6009 388.524 62.528 387.244 63.3594C385.982 64.1788 384.601 64.8965 383.141 65.4886C381.688 66.0808 380.145 66.5473 378.56 66.8822Z" fill="#23202A"/>
<path d="M505.623 31.8352C503.309 29.676 500.474 28.0192 497.19 26.9247C493.871 25.8122 490.108 25.25 486.011 25.25C484.062 25.25 482.136 25.3876 480.299 25.6567C478.475 25.9259 476.651 26.3625 474.887 26.9666C473.11 27.5707 471.31 28.3721 469.533 29.347C467.751 30.322 465.915 31.5361 464.067 32.9596L463.289 33.5577L462.619 32.834C460.293 30.31 457.452 28.402 454.18 27.152C450.872 25.89 447.182 25.25 443.217 25.25C440.37 25.25 437.415 25.6268 434.43 26.3804C431.47 27.1221 428.378 28.4738 425.249 30.3937L423.611 31.3986V29.4786V26.1771H412.797V75.7184H423.611V41.9552V41.5186L423.916 41.2076C424.932 40.1609 426.093 39.2099 427.367 38.3845C428.629 37.5591 430.004 36.8533 431.452 36.2732C432.893 35.699 434.419 35.2444 435.974 34.9274C437.541 34.6104 439.126 34.4429 440.681 34.4429C443.229 34.4429 445.609 34.8736 447.756 35.7229C449.927 36.5842 451.812 37.8522 453.355 39.491C454.892 41.1238 456.106 43.1514 456.955 45.5139C457.799 47.8585 458.223 50.5381 458.223 53.4808V75.7065H468.995V41.8655V41.4946L469.222 41.2016C470.132 40.0412 471.208 39.0185 472.428 38.1632C473.631 37.3139 474.934 36.6021 476.304 36.0518C477.662 35.5016 479.085 35.0889 480.527 34.8317C481.962 34.5745 483.38 34.4429 484.749 34.4429C487.267 34.4429 489.624 34.8736 491.741 35.7229C493.877 36.5842 495.749 37.8462 497.292 39.485C498.835 41.1178 500.043 43.1454 500.892 45.508C501.736 47.8466 502.16 50.5321 502.16 53.4748V75.7005H512.932V51.3754C512.932 47.063 512.286 43.2232 511.012 39.9635C509.738 36.7217 507.926 33.9884 505.623 31.8352Z" fill="#23202A"/>
<defs>
<linearGradient id="paint0_linear_721_1175" x1="321.44" y1="4.33203" x2="332.94" y2="13.832" gradientUnits="userSpaceOnUse">
<stop stop-color="#CE192D"/>
<stop offset="1" stop-color="#750D08"/>
</linearGradient>
</defs>
</svg>
