<svg width="498" height="257" viewBox="0 0 498 257" fill="none" xmlns="http://www.w3.org/2000/svg">
<path d="M182.602 62.9594C178.28 77.2272 179.666 93.3703 186.841 107.23C190.592 114.079 195.646 120.275 201.924 125.167C208.202 130.059 215.54 133.402 223.285 135.277C238.776 138.783 255.49 135.685 268.372 126.961C281.335 118.237 289.977 104.377 292.586 89.7829C295.277 75.1074 291.771 60.0243 283.699 48.2839C275.709 36.5435 263.48 28.1458 249.946 25.2107C236.656 22.2756 222.225 23.6616 209.67 30.3471C196.951 36.788 186.923 48.6915 182.602 62.9594ZM167.355 59.2905C170.943 40.7015 182.275 23.254 198.582 12.1658C206.816 6.78478 216.111 2.87132 225.976 1.07764C235.841 -0.716031 246.032 -0.226848 255.734 2.21907C275.139 7.19244 292.179 20.2373 301.718 37.4403C311.338 54.5617 313.377 75.352 307.996 93.5333C302.778 111.796 289.977 127.287 273.997 136.011C258.099 144.979 238.858 147.425 221.573 142.859C204.289 138.375 188.472 127.776 178.28 112.611C167.763 97.6099 163.605 77.8795 167.355 59.2905Z" fill="#23202A"/>
<path d="M241.877 78.1235C240.491 81.2217 240.899 85.0536 242.774 88.8856C244.567 92.636 247.503 96.2233 250.682 99.403C257.042 105.925 264.95 111.062 272.859 115.872C280.849 120.601 289.572 124.351 298.378 126.308C306.857 128.346 316.804 128.02 320.065 123.291C321.695 121.009 322.103 117.095 320.799 112.937C319.576 108.779 317.374 104.621 314.521 100.789C308.814 93.0436 301.15 86.6842 292.752 81.4663C284.273 76.4929 274.978 72.661 265.276 71.438C260.466 70.8673 255.656 70.8673 251.334 71.9272C246.932 72.824 243.344 75.1069 241.877 78.1235ZM234.376 73.8024C238.208 67.9322 244.567 65.4047 250.03 64.7525C255.656 64.0187 261.118 64.5894 266.255 65.6493C276.69 67.7691 286.311 71.7641 295.443 76.819C304.574 81.8739 313.135 87.9887 320.391 95.9787C323.978 99.9737 327.321 104.376 329.604 109.757C331.887 114.975 333.11 122.15 329.767 128.836C326.18 135.44 319.331 138.782 313.461 140.005C307.428 141.31 301.639 141.31 296.013 140.576C284.762 139.108 274.408 135.032 264.869 129.814C255.329 124.433 246.932 117.014 240.409 107.882C237.23 103.235 234.458 98.1801 232.827 92.4729C231.115 86.9288 230.707 79.7541 234.376 73.8024Z" fill="#23202A"/>
<path d="M237.632 88.1634C244.162 88.1634 249.454 82.8705 249.454 76.3415C249.454 69.8124 244.162 64.5195 237.632 64.5195C231.103 64.5195 225.811 69.8124 225.811 76.3415C225.811 82.8705 231.103 88.1634 237.632 88.1634Z" fill="#23202A"/>
<path d="M317.504 198.938C321.799 198.938 325.28 195.457 325.28 191.163C325.28 186.868 321.799 183.387 317.504 183.387C313.21 183.387 309.729 186.868 309.729 191.163C309.729 195.457 313.21 198.938 317.504 198.938Z" fill="#23202A"/>
<path d="M65.7222 245.554C68.284 242.719 70.2953 239.421 71.698 235.752C73.1006 232.083 73.8135 228.032 73.8135 223.708C73.8135 218.868 72.9151 214.382 71.1415 210.377C69.3679 206.372 66.8524 202.883 63.6529 200.014C60.4477 197.133 56.5295 194.867 52.0086 193.278C47.476 191.69 42.3928 190.879 36.9097 190.879C31.3976 190.879 26.3086 191.685 21.7818 193.284C17.2782 194.872 13.3658 197.139 10.1606 200.019C6.96114 202.894 4.43982 206.378 2.67201 210.383C0.898398 214.388 0 218.874 0 223.714C0 228.583 0.898398 233.109 2.67201 237.155C4.44562 241.207 6.96693 244.736 10.1664 247.646C13.3774 250.567 17.284 252.874 21.7876 254.503C26.3086 256.137 31.3976 256.966 36.9039 256.966C40.6829 256.966 44.2707 256.578 47.5745 255.807C50.8667 255.042 53.9502 253.9 56.7498 252.422L57.3989 252.08L57.9438 252.573L61.7634 256.039H75.7263L65.7975 247.032L65.0266 246.33L65.7222 245.554ZM61.178 231.637C60.3376 234.043 59.1494 236.234 57.6366 238.158L56.9468 239.039L56.118 238.285L44.8677 228.067H30.9107L47.9223 243.484L49.18 244.626L47.5919 245.235C44.3751 246.464 40.7757 247.084 36.9039 247.084C33.2929 247.084 29.8964 246.533 26.8186 245.455C23.7177 244.371 20.9877 242.795 18.7041 240.772C16.4088 238.743 14.5946 236.262 13.3079 233.393C12.0211 230.524 11.372 227.267 11.372 223.714C11.372 220.155 12.0269 216.909 13.3137 214.069C14.6004 211.223 16.4204 208.783 18.7215 206.812C21.0051 204.853 23.7409 203.335 26.8418 202.303C29.9196 201.283 33.3103 200.761 36.9155 200.761C40.5206 200.761 43.9056 201.277 46.9891 202.297C50.09 203.329 52.8142 204.842 55.0921 206.807C57.3758 208.777 59.1957 211.217 60.4941 214.058C61.7982 216.898 62.4589 220.143 62.4589 223.702C62.4474 226.56 62.0184 229.226 61.178 231.637Z" fill="#23202A"/>
<path d="M114.529 247.489C112.982 247.813 111.434 247.976 109.921 247.976C106.756 247.976 104.055 247.576 101.899 246.787C99.6968 245.982 97.9 244.828 96.5611 243.345C95.2222 241.867 94.2659 240.076 93.7152 238.012C93.182 236.024 92.9154 233.798 92.9154 231.399V207.988H82.4766V233.178C82.4766 236.986 82.946 240.418 83.8734 243.374C84.7776 246.272 86.2324 248.741 88.1857 250.723C90.139 252.705 92.7009 254.241 95.8018 255.285C98.9491 256.345 102.798 256.884 107.249 256.884C109.95 256.884 112.848 256.496 115.862 255.725C118.865 254.96 121.896 253.673 124.881 251.894L126.457 250.955V252.792V256.038H136.937V207.988H126.457V240.696V241.107L126.173 241.409C125.275 242.371 124.185 243.263 122.945 244.075C121.722 244.875 120.383 245.564 118.969 246.138C117.566 246.712 116.071 247.164 114.529 247.489Z" fill="#23202A"/>
<path d="M168.127 209.794C165.113 211.261 162.215 213.023 159.508 215.04L157.839 216.28V214.205V208.032H147.359V256.041H157.839V227.281V226.933L158.047 226.655C160.435 223.473 163.577 220.969 167.385 219.224C170.81 217.654 174.775 216.576 179.192 216.031L176.195 206.688C173.523 207.447 170.816 208.49 168.127 209.794Z" fill="#23202A"/>
<path d="M211.015 207.137C208.94 207.137 206.761 207.247 204.541 207.473C202.315 207.693 200.06 208.012 197.829 208.418C195.603 208.823 193.395 209.31 191.262 209.867C189.506 210.325 187.825 210.829 186.254 211.362L189.32 219.639C190.601 219.1 191.963 218.625 193.383 218.213C195.174 217.697 197.017 217.263 198.849 216.915C200.681 216.573 202.483 216.312 204.199 216.138C205.926 215.964 207.532 215.877 208.975 215.877C211.653 215.877 214.093 216.161 216.22 216.718C218.376 217.286 220.254 218.097 221.802 219.129C223.378 220.184 224.63 221.465 225.528 222.931C226.427 224.409 226.966 226.038 227.122 227.777L227.256 229.249L225.824 228.878C222.259 227.962 218.753 227.267 215.397 226.82C212.041 226.374 208.812 226.148 205.793 226.148C201.735 226.148 198.142 226.531 195.11 227.284C192.12 228.032 189.598 229.092 187.616 230.443C185.674 231.77 184.202 233.364 183.24 235.184C182.278 237.004 181.791 239.056 181.791 241.276C181.791 243.478 182.26 245.548 183.188 247.414C184.115 249.28 185.518 250.938 187.361 252.329C189.227 253.743 191.604 254.874 194.427 255.679C197.278 256.496 200.64 256.914 204.431 256.914C206.691 256.914 208.865 256.769 210.888 256.479C212.91 256.189 214.829 255.789 216.591 255.297C218.347 254.804 219.993 254.219 221.483 253.564C222.984 252.903 224.381 252.196 225.639 251.454L227.209 250.532V252.352V256.021H237.689V235.259C237.689 225.707 235.486 218.549 231.139 213.988C226.809 209.444 220.04 207.137 211.015 207.137ZM227.209 237.891V240.099V240.551L226.879 240.859C225.865 241.815 224.59 242.742 223.083 243.629C221.593 244.504 219.906 245.293 218.069 245.959C216.243 246.626 214.249 247.17 212.134 247.576C210.018 247.982 207.792 248.191 205.526 248.191C203.382 248.191 201.521 247.999 199.997 247.628C198.437 247.252 197.128 246.736 196.107 246.098C195.029 245.426 194.224 244.632 193.714 243.733C193.204 242.829 192.943 241.861 192.943 240.864C192.943 239.92 193.186 239.01 193.673 238.146C194.166 237.271 194.989 236.511 196.119 235.891C197.168 235.323 198.536 234.865 200.194 234.535C201.811 234.21 203.851 234.048 206.256 234.048C207.404 234.048 208.755 234.089 210.285 234.176C211.815 234.263 213.467 234.413 215.194 234.628C216.915 234.842 218.753 235.138 220.66 235.509C222.555 235.88 224.503 236.343 226.45 236.888L227.215 237.103V237.891H227.209Z" fill="#23202A"/>
<path d="M295.464 213.524C293.209 211.426 290.491 209.826 287.384 208.76C284.254 207.687 280.794 207.137 277.108 207.137C274.291 207.137 271.37 207.513 268.425 208.25C265.487 208.986 262.357 210.296 259.111 212.133L257.552 213.02V211.229V208.029H247.072V256.039H257.552V223.331V222.885L257.876 222.578C258.966 221.546 260.2 220.607 261.528 219.79C262.849 218.984 264.24 218.294 265.672 217.749C267.092 217.21 268.564 216.781 270.042 216.492C271.532 216.196 273.01 216.045 274.424 216.045C277.114 216.045 279.583 216.463 281.774 217.28C283.988 218.109 285.9 219.338 287.46 220.92C289.019 222.508 290.224 224.479 291.053 226.774C291.87 229.046 292.282 231.643 292.282 234.494V256.033H302.721V232.46C302.721 228.287 302.066 224.571 300.779 221.413C299.51 218.271 297.719 215.616 295.464 213.524Z" fill="#23202A"/>
<path d="M323.417 208.027H312.938V256.037H323.417V208.027Z" fill="#23202A"/>
<path d="M366.853 247.489C365.306 247.813 363.758 247.976 362.245 247.976C359.081 247.976 356.38 247.576 354.224 246.787C352.021 245.982 350.224 244.828 348.885 243.345C347.546 241.867 346.59 240.07 346.039 238.012C345.506 236.024 345.24 233.798 345.24 231.399V207.988H334.801V233.178C334.801 236.986 335.27 240.418 336.198 243.374C337.102 246.272 338.557 248.741 340.51 250.723C342.463 252.705 345.025 254.241 348.126 255.285C351.273 256.345 355.122 256.884 359.573 256.884C362.274 256.884 365.172 256.496 368.186 255.725C371.189 254.96 374.22 253.673 377.205 251.894L378.782 250.955V252.792V256.038H389.261V207.988H378.782V240.696V241.107L378.498 241.409C377.599 242.371 376.51 243.269 375.269 244.075C374.046 244.869 372.707 245.564 371.293 246.138C369.885 246.712 368.389 247.164 366.853 247.489Z" fill="#23202A"/>
<path d="M489.987 213.526C487.744 211.434 484.996 209.828 481.814 208.767C478.598 207.689 474.952 207.145 470.981 207.145C469.092 207.145 467.226 207.278 465.446 207.539C463.678 207.799 461.911 208.223 460.201 208.808C458.479 209.393 456.735 210.17 455.013 211.115C453.286 212.06 451.507 213.236 449.716 214.616L448.962 215.195L448.313 214.494C446.058 212.048 443.305 210.199 440.135 208.988C436.929 207.765 433.353 207.145 429.51 207.145C426.751 207.145 423.888 207.51 420.996 208.24C418.127 208.959 415.13 210.269 412.099 212.129L410.511 213.103V211.242V208.043H400.031V256.052H410.511V223.333V222.91L410.806 222.609C411.792 221.594 412.916 220.673 414.151 219.873C415.374 219.073 416.707 218.389 418.109 217.827C419.506 217.27 420.984 216.83 422.491 216.523C424.01 216.215 425.546 216.053 427.053 216.053C429.522 216.053 431.829 216.47 433.91 217.294C436.014 218.128 437.839 219.357 439.335 220.945C440.824 222.527 442.001 224.492 442.824 226.782C443.641 229.054 444.053 231.651 444.053 234.502V256.041H454.492V223.246V222.887L454.712 222.603C455.593 221.478 456.636 220.487 457.818 219.658C458.984 218.835 460.247 218.146 461.574 217.612C462.89 217.079 464.27 216.679 465.666 216.43C467.058 216.181 468.431 216.053 469.759 216.053C472.199 216.053 474.482 216.47 476.534 217.294C478.603 218.128 480.418 219.351 481.913 220.939C483.408 222.522 484.579 224.487 485.402 226.776C486.219 229.042 486.631 231.645 486.631 234.496V256.035H497.07V232.462C497.07 228.283 496.444 224.562 495.209 221.403C493.975 218.261 492.218 215.613 489.987 213.526Z" fill="#23202A"/>
</svg>
