<svg width="659" height="100" viewBox="0 0 659 100" fill="none" xmlns="http://www.w3.org/2000/svg">
<path d="M473.696 23.7824C478.127 23.7824 481.72 20.1899 481.72 15.7584C481.72 11.3269 478.127 7.73438 473.696 7.73438C469.264 7.73438 465.672 11.3269 465.672 15.7584C465.672 20.1899 469.264 23.7824 473.696 23.7824Z" fill="url(#paint0_linear_721_1357)"/>
<path d="M11.4025 43.2427C8.43462 53.0424 9.38659 64.13 14.3144 73.6497C16.8903 78.3535 20.3622 82.6094 24.6741 85.9693C28.9859 89.3291 34.0257 91.6251 39.3456 92.913C49.9852 95.3209 61.4648 93.193 70.3125 87.2012C79.2162 81.2094 85.152 71.6897 86.9439 61.6661C88.7919 51.5864 86.384 41.2268 80.8402 33.1631C75.3523 25.0993 66.9526 19.3315 57.6569 17.3156C48.5293 15.2997 38.6176 16.2516 29.9939 20.8435C21.2582 25.2673 14.3704 33.443 11.4025 43.2427ZM0.930877 40.7228C3.39479 27.9552 11.1785 15.9716 22.3781 8.3559C28.034 4.66003 34.4177 1.97212 41.1935 0.740163C47.9693 -0.491795 54.969 -0.155808 61.6328 1.52414C74.9604 4.94002 86.6639 13.8997 93.2157 25.7153C99.8235 37.4749 101.223 51.7544 97.5276 64.242C93.9437 76.7856 85.152 87.4252 74.1764 93.417C63.2567 99.5768 50.0412 101.257 38.1696 98.1208C26.298 95.041 15.4344 87.7612 8.43462 77.3455C1.21087 67.0419 -1.64504 53.4904 0.930877 40.7228Z" fill="white"/>
<path d="M52.113 53.6608C51.161 55.7887 51.441 58.4206 52.729 61.0525C53.9609 63.6284 55.9769 66.0924 58.1608 68.2763C62.5286 72.7561 67.9604 76.284 73.3923 79.5879C78.8801 82.8358 84.8719 85.4117 90.9197 86.7557C96.7435 88.1556 103.575 87.9316 105.815 84.6837C106.935 83.1158 107.215 80.4279 106.319 77.572C105.479 74.7161 103.967 71.8602 102.007 69.2282C98.0874 63.9084 92.8236 59.5406 87.0558 55.9567C81.232 52.5408 74.8482 49.9089 68.1844 49.0689C64.8806 48.6769 61.5767 48.6769 58.6088 49.4049C55.5849 50.0209 53.121 51.5888 52.113 53.6608ZM46.9612 50.6929C49.5931 46.661 53.9609 44.9251 57.7128 44.4771C61.5767 43.9731 65.3285 44.3651 68.8564 45.0931C76.0242 46.549 82.6319 49.2929 88.9037 52.7648C95.1755 56.2367 101.055 60.4365 106.039 65.9244C108.503 68.6683 110.799 71.6922 112.367 75.388C113.935 78.9719 114.775 83.8997 112.479 88.4916C110.015 93.0274 105.311 95.3234 101.279 96.1633C97.1354 97.0593 93.1596 97.0593 89.2957 96.5553C81.568 95.5474 74.4562 92.7475 67.9044 89.1636C61.3527 85.4677 55.5849 80.3719 51.105 74.1001C48.9211 70.9082 47.0172 67.4363 45.8972 63.5164C44.7212 59.7086 44.4412 54.7807 46.9612 50.6929Z" fill="white"/>
<path d="M49.1998 60.5559C53.6842 60.5559 57.3195 56.9205 57.3195 52.4361C57.3195 47.9517 53.6842 44.3164 49.1998 44.3164C44.7154 44.3164 41.0801 47.9517 41.0801 52.4361C41.0801 56.9205 44.7154 60.5559 49.1998 60.5559Z" fill="url(#paint1_linear_721_1357)"/>
<path d="M213.88 71.8845C216.524 68.9597 218.599 65.5565 220.047 61.7704C221.494 57.9844 222.23 53.8036 222.23 49.3417C222.23 44.3475 221.303 39.7182 219.472 35.5852C217.642 31.4523 215.046 27.8517 211.745 24.891C208.437 21.9184 204.394 19.5798 199.729 17.941C195.052 16.3022 189.806 15.4648 184.148 15.4648C178.46 15.4648 173.209 16.2962 168.537 17.947C163.89 19.5858 159.853 21.9244 156.545 24.897C153.244 27.8636 150.642 31.4583 148.818 35.5912C146.988 39.7241 146.061 44.3535 146.061 49.3477C146.061 54.3718 146.988 59.0431 148.818 63.2179C150.648 67.3986 153.25 71.0411 156.551 74.0436C159.865 77.0581 163.896 79.4386 168.543 81.1193C173.209 82.8059 178.46 83.6612 184.142 83.6612C188.042 83.6612 191.744 83.2605 195.153 82.465C198.551 81.6755 201.733 80.4972 204.621 78.9721L205.291 78.6192L205.854 79.1276L209.795 82.7043H224.203L213.958 73.4096L213.162 72.6859L213.88 71.8845ZM209.191 57.5239C208.324 60.006 207.098 62.2669 205.537 64.2526L204.825 65.1617L203.969 64.3842L192.36 53.8395H177.958L195.512 69.7492L196.81 70.9275L195.171 71.5555C191.852 72.8235 188.138 73.4635 184.142 73.4635C180.416 73.4635 176.911 72.8953 173.735 71.7828C170.535 70.6643 167.718 69.0375 165.362 66.9501C162.993 64.8567 161.121 62.2968 159.793 59.3361C158.465 56.3755 157.795 53.0141 157.795 49.3477C157.795 45.6753 158.471 42.3259 159.799 39.3952C161.127 36.4585 163.005 33.9404 165.379 31.9069C167.736 29.8853 170.559 28.3182 173.759 27.2536C176.935 26.2009 180.434 25.6626 184.154 25.6626C187.874 25.6626 191.367 26.1949 194.549 27.2476C197.749 28.3122 200.56 29.8733 202.911 31.9009C205.267 33.9344 207.145 36.4525 208.485 39.3832C209.831 42.314 210.513 45.6634 210.513 49.3358C210.501 52.2844 210.058 55.0357 209.191 57.5239Z" fill="white"/>
<path d="M264.245 73.8822C262.648 74.2172 261.051 74.3846 259.49 74.3846C256.225 74.3846 253.438 73.9719 251.213 73.1585C248.94 72.3271 247.086 71.1369 245.704 69.6057C244.322 68.0806 243.335 66.2324 242.767 64.1031C242.217 62.0516 241.942 59.7549 241.942 57.2787V33.1211H231.17V59.1149C231.17 63.0445 231.654 66.5853 232.611 69.6357C233.544 72.6262 235.046 75.1741 237.061 77.2197C239.077 79.2652 241.721 80.8502 244.92 81.9268C248.168 83.0213 252.14 83.5776 256.733 83.5776C259.52 83.5776 262.511 83.1768 265.621 82.3814C268.719 81.5919 271.847 80.2641 274.928 78.4279L276.554 77.4589V79.3549V82.7043H287.368V33.1211H276.554V66.8724V67.297L276.261 67.6081C275.334 68.6009 274.21 69.522 272.93 70.3594C271.668 71.1848 270.286 71.8965 268.827 72.4886C267.379 73.0808 265.836 73.5473 264.245 73.8822Z" fill="white"/>
<path d="M319.551 34.9832C316.441 36.4964 313.451 38.3147 310.657 40.3961L308.935 41.676V39.5348V33.165H298.121V82.7063H308.935V53.0282V52.6693L309.15 52.3822C311.614 49.0986 314.856 46.5148 318.786 44.7144C322.321 43.0936 326.412 41.9811 330.969 41.4189L327.877 31.7773C325.12 32.5609 322.327 33.6375 319.551 34.9832Z" fill="white"/>
<path d="M363.809 32.2422C361.668 32.2422 359.419 32.3558 357.128 32.5891C354.831 32.8164 352.505 33.1453 350.202 33.564C347.905 33.9827 345.626 34.4851 343.425 35.0593C341.613 35.5318 339.879 36.0521 338.258 36.6024L341.422 45.1434C342.744 44.5872 344.149 44.0967 345.615 43.6721C347.463 43.1397 349.365 42.6912 351.255 42.3323C353.145 41.9794 355.005 41.7103 356.775 41.5308C358.558 41.3514 360.214 41.2617 361.704 41.2617C364.467 41.2617 366.985 41.5547 369.18 42.1289C371.405 42.7151 373.343 43.5524 374.94 44.6171C376.567 45.7056 377.859 47.0274 378.786 48.5407C379.713 50.0658 380.269 51.7465 380.43 53.5409L380.568 55.06L379.091 54.6773C375.412 53.7322 371.794 53.0145 368.331 52.554C364.868 52.0934 361.536 51.8602 358.42 51.8602C354.233 51.8602 350.525 52.2549 347.397 53.0325C344.311 53.804 341.709 54.8986 339.663 56.2922C337.66 57.6618 336.14 59.3066 335.148 61.1847C334.155 63.0627 333.652 65.1801 333.652 67.4708C333.652 69.7436 334.137 71.8789 335.094 73.8048C336.051 75.7307 337.498 77.4413 339.4 78.8768C341.326 80.3361 343.778 81.5025 346.691 82.3338C349.634 83.1772 353.103 83.6078 357.014 83.6078C359.347 83.6078 361.59 83.4583 363.677 83.1592C365.765 82.8602 367.745 82.4475 369.563 81.9391C371.375 81.4307 373.074 80.8266 374.611 80.1507C376.16 79.4689 377.601 78.7392 378.899 77.9736L380.52 77.0226V78.9007V82.6867H391.334V61.2624C391.334 51.4056 389.061 44.019 384.575 39.3118C380.107 34.6227 373.122 32.2422 363.809 32.2422ZM380.52 63.9779V66.2566V66.7232L380.179 67.0402C379.133 68.0271 377.817 68.984 376.262 69.8991C374.724 70.8023 372.984 71.6157 371.088 72.3035C369.204 72.9914 367.146 73.5536 364.963 73.9723C362.78 74.3909 360.484 74.6063 358.145 74.6063C355.932 74.6063 354.012 74.4089 352.439 74.0261C350.83 73.6373 349.478 73.105 348.426 72.4471C347.313 71.7533 346.482 70.9339 345.955 70.0068C345.429 69.0737 345.16 68.0749 345.16 67.0462C345.16 66.0712 345.411 65.1322 345.914 64.241C346.422 63.3379 347.271 62.5544 348.438 61.9144C349.52 61.3282 350.932 60.8557 352.642 60.5148C354.311 60.1799 356.416 60.0124 358.899 60.0124C360.083 60.0124 361.476 60.0543 363.055 60.144C364.634 60.2337 366.339 60.3892 368.121 60.6105C369.898 60.8318 371.794 61.1368 373.762 61.5196C375.717 61.9024 377.727 62.3809 379.737 62.9431L380.526 63.1644V63.9779H380.52Z" fill="white"/>
<path d="M450.954 38.8333C448.627 36.6682 445.822 35.0174 442.616 33.9169C439.386 32.8104 435.816 32.2422 432.012 32.2422C429.105 32.2422 426.09 32.631 423.052 33.3906C420.02 34.1502 416.79 35.5019 413.44 37.3979L411.831 38.313V36.4648V33.1633H401.018V82.7046H411.831V48.9534V48.4928L412.166 48.1758C413.291 47.1112 414.565 46.1422 415.934 45.2989C417.298 44.4675 418.734 43.7558 420.211 43.1936C421.676 42.6373 423.195 42.1947 424.721 41.8957C426.258 41.5906 427.783 41.4351 429.242 41.4351C432.018 41.4351 434.566 41.8658 436.826 42.7091C439.111 43.5644 441.085 44.8324 442.694 46.4652C444.303 48.104 445.547 50.1376 446.402 52.5061C447.245 54.8507 447.67 57.5302 447.67 60.4729V82.6987H458.442V58.3736C458.442 54.0672 457.766 50.2333 456.438 46.9736C455.128 43.7319 453.28 40.9925 450.954 38.8333Z" fill="white"/>
<path d="M479.8 33.1641H468.986V82.7054H479.8V33.1641Z" fill="white"/>
<path d="M524.62 73.8822C523.023 74.2172 521.426 74.3846 519.865 74.3846C516.6 74.3846 513.813 73.9719 511.588 73.1585C509.315 72.3271 507.461 71.1369 506.079 69.6057C504.697 68.0806 503.71 66.2264 503.142 64.1031C502.592 62.0516 502.317 59.7549 502.317 57.2787V33.1211H491.545V59.1149C491.545 63.0445 492.029 66.5853 492.986 69.6357C493.919 72.6262 495.421 75.1741 497.436 77.2197C499.452 79.2652 502.096 80.8502 505.295 81.9268C508.543 83.0213 512.515 83.5776 517.108 83.5776C519.895 83.5776 522.886 83.1768 525.996 82.3814C529.094 81.5919 532.222 80.2641 535.303 78.4279L536.929 77.4589V79.3549V82.7043H547.743V33.1211H536.929V66.8724V67.297L536.636 67.6081C535.709 68.6009 534.585 69.528 533.305 70.3594C532.043 71.1788 530.661 71.8965 529.202 72.4886C527.748 73.0808 526.205 73.5473 524.62 73.8822Z" fill="white"/>
<path d="M651.684 38.8352C649.369 36.676 646.534 35.0192 643.251 33.9247C639.931 32.8122 636.169 32.25 632.072 32.25C630.122 32.25 628.196 32.3876 626.36 32.6567C624.536 32.9259 622.712 33.3625 620.947 33.9666C619.171 34.5707 617.37 35.3721 615.594 36.347C613.812 37.322 611.975 38.5361 610.127 39.9596L609.35 40.5577L608.68 39.834C606.353 37.31 603.512 35.402 600.241 34.152C596.933 32.89 593.243 32.25 589.277 32.25C586.43 32.25 583.476 32.6268 580.491 33.3804C577.53 34.1221 574.438 35.4738 571.31 37.3937L569.671 38.3986V36.4786V33.1771H558.857V82.7184H569.671V48.9552V48.5186L569.976 48.2076C570.993 47.1609 572.153 46.2099 573.427 45.3845C574.689 44.5591 576.065 43.8533 577.512 43.2732C578.954 42.699 580.479 42.2444 582.034 41.9274C583.601 41.6104 585.186 41.4429 586.741 41.4429C589.289 41.4429 591.67 41.8736 593.817 42.7229C595.988 43.5842 597.872 44.8522 599.415 46.491C600.952 48.1238 602.166 50.1514 603.016 52.5139C603.859 54.8585 604.284 57.5381 604.284 60.4808V82.7065H615.056V48.8655V48.4946L615.283 48.2016C616.192 47.0412 617.269 46.0185 618.489 45.1632C619.691 44.3139 620.995 43.6021 622.365 43.0518C623.722 42.5016 625.146 42.0889 626.587 41.8317C628.023 41.5745 629.44 41.4429 630.81 41.4429C633.328 41.4429 635.685 41.8736 637.802 42.7229C639.937 43.5842 641.809 44.8462 643.352 46.485C644.895 48.1178 646.104 50.1454 646.953 52.508C647.796 54.8466 648.221 57.5321 648.221 60.4748V82.7005H658.993V58.3754C658.993 54.063 658.347 50.2232 657.073 46.9635C655.799 43.7217 653.987 40.9884 651.684 38.8352Z" fill="white"/>
<defs>
<linearGradient id="paint0_linear_721_1357" x1="465.999" y1="10.5" x2="479.499" y2="20" gradientUnits="userSpaceOnUse">
<stop stop-color="#CE192D"/>
<stop offset="1" stop-color="#750D08"/>
</linearGradient>
<linearGradient id="paint1_linear_721_1357" x1="43" y1="49.5" x2="56" y2="56" gradientUnits="userSpaceOnUse">
<stop stop-color="#CE192D"/>
<stop offset="1" stop-color="#750D08"/>
</linearGradient>
</defs>
</svg>
