<svg width="121" height="122" viewBox="0 0 121 122" fill="none" xmlns="http://www.w3.org/2000/svg">
<g clip-path="url(#clip0_415_3782)">
<path d="M60.7755 110.888C88.0446 110.888 110.151 88.7817 110.151 61.5126C110.151 34.2434 88.0446 12.1375 60.7755 12.1375C33.5064 12.1375 11.4004 34.2434 11.4004 61.5126C11.4004 88.7817 33.5064 110.888 60.7755 110.888Z" fill="#B688FB"/>
<path d="M60.7521 120.739C93.475 120.739 120.002 94.2118 120.002 61.4889C120.002 28.7659 93.475 2.23877 60.7521 2.23877C28.0291 2.23877 1.50195 28.7659 1.50195 61.4889C1.50195 94.2118 28.0291 120.739 60.7521 120.739Z" stroke="#B688FB" stroke-opacity="0.75" stroke-width="1.5"/>
<mask id="mask0_415_3782" style="mask-type:alpha" maskUnits="userSpaceOnUse" x="33" y="33" width="56" height="57">
<path fill-rule="evenodd" clip-rule="evenodd" d="M72.0666 36.6742L70.6524 38.0884L63.5157 45.225L62.1016 46.6392L60.6874 48.0534L59.2731 46.6392L50.8513 38.2174L49.4371 36.8032L52.2655 33.9748L53.6797 35.389L60.6873 42.3966L67.824 35.2599L69.2382 33.8457L72.0666 36.6742ZM77.0604 43.0472L78.4746 41.633L75.6461 38.8046L74.2319 40.2188L60.7505 53.7003L47.2718 40.2216L45.8575 38.8073L43.0291 41.6358L44.4433 43.05L59.3351 57.9418L60.7493 59.356L60.7532 59.3521L60.7543 59.3532L62.1686 57.939L77.0604 43.0472ZM63.0114 61.4859L64.4256 60.0717L79.3174 45.1799L80.7316 43.7657L83.5601 46.5941L82.1459 48.0084L68.6671 61.4871L82.1487 74.9687L83.5629 76.3829L80.7345 79.2113L79.3202 77.7971L64.4284 62.9053L63.0142 61.4911L63.0154 61.4899L63.0114 61.4859ZM42.1836 45.18L40.7694 43.7658L37.9409 46.5942L39.3551 48.0084L52.8367 61.4899L39.358 74.9686L37.9438 76.3828L40.7722 79.2113L42.1864 77.797L57.0782 62.9053L58.4924 61.491L58.4885 61.4871L58.4896 61.486L57.0754 60.0718L42.1836 45.18ZM44.4433 79.9298L43.0291 81.3441L45.8575 84.1725L47.2717 82.7583L60.7532 69.2767L74.2319 82.7554L75.6462 84.1697L78.4746 81.3412L77.0604 79.927L62.1686 65.0352L60.7544 63.621L60.7504 63.6249L60.7493 63.6238L59.3351 65.038L44.4433 79.9298ZM74.0001 61.4238L75.4144 60.0096L83.8362 51.5878L85.2504 50.1736L88.0788 53.002L86.6646 54.4162L79.6569 61.4238L86.7936 68.5605L88.2078 69.9747L85.3794 72.8032L83.9652 71.389L75.4144 62.8382L74.0001 61.4238ZM36.1243 50.1737L37.5385 51.5879L44.6751 58.7244L46.0893 60.1387L47.5035 61.5529L46.0893 62.9671L44.6751 64.3813L37.6675 71.3889L36.2533 72.8031L33.4248 69.9747L34.8391 68.5605L41.8466 61.5529L34.7101 54.4163L33.2959 53.0021L36.1243 50.1737ZM49.4371 86.3031L50.8513 84.8889L59.4021 76.3381L60.8163 74.9239L62.2306 76.3381L70.6524 84.7599L72.0666 86.1741L69.2382 89.0026L67.824 87.5883L60.8164 80.5807L53.6797 87.7173L52.2655 89.1315L49.4371 86.3031Z" fill="#FEFEFE"/>
</mask>
<g mask="url(#mask0_415_3782)">
<path d="M60.7516 88.122C75.4608 88.122 87.385 76.1978 87.385 61.4886C87.385 46.7794 75.4608 34.8552 60.7516 34.8552C46.0423 34.8552 34.1182 46.7794 34.1182 61.4886C34.1182 76.1978 46.0423 88.122 60.7516 88.122Z" fill="white"/>
</g>
</g>
<defs>
<clipPath id="clip0_415_3782">
<rect width="121" height="121" fill="white" transform="translate(0 0.5)"/>
</clipPath>
</defs>
</svg>
