<svg width="800" height="800" viewBox="0 0 800 800" fill="none" xmlns="http://www.w3.org/2000/svg">
<g clip-path="url(#clip0_418_6)">
<path d="M618.324 425.015C619.448 546.082 724.53 586.369 725.694 586.882C724.806 589.722 708.904 644.294 670.332 700.663C636.987 749.399 602.382 797.953 547.867 798.959C494.3 799.946 477.076 767.195 415.834 767.195C354.61 767.195 335.473 797.954 284.766 799.947C232.145 801.94 192.073 747.249 158.454 698.692C89.7542 599.37 37.2532 418.031 107.749 295.624C142.769 234.837 205.354 196.343 273.284 195.356C324.957 194.371 373.728 230.12 405.317 230.12C436.887 230.12 496.154 187.128 558.462 193.442C584.546 194.528 657.766 203.979 704.78 272.797C700.992 275.146 617.415 323.8 618.324 425.015ZM517.652 127.732C545.588 93.9156 564.392 46.8399 559.262 0C518.993 1.61847 470.299 26.834 441.415 60.6319C415.529 90.5615 392.86 138.466 398.976 184.378C443.861 187.851 489.713 161.57 517.652 127.732Z" fill="#88F9FB"/>
</g>
<defs>
<clipPath id="clip0_418_6">
<rect width="800" height="800" fill="white"/>
</clipPath>
</defs>
</svg>
