<svg width="11" height="19" viewBox="0 0 11 19" fill="none" xmlns="http://www.w3.org/2000/svg">
<path fill-rule="evenodd" clip-rule="evenodd" d="M2.40291 0.780564C2.01238 0.39004 1.37922 0.39004 0.988694 0.780564C0.59817 1.17109 0.59817 1.80425 0.988694 2.19478L8.28275 9.48883L0.988694 16.7829C0.59817 17.1734 0.59817 17.8066 0.988694 18.1971C1.37922 18.5876 2.01238 18.5876 2.40291 18.1971L10.3901 10.2099C10.3949 10.2053 10.3995 10.2007 10.4042 10.1961C10.5995 10.0008 10.6971 9.7448 10.6971 9.48883C10.6971 9.23287 10.5995 8.97689 10.4042 8.78159C10.3995 8.77694 10.3949 8.77234 10.3901 8.76779L2.40291 0.780564Z" fill="#EAEAEA"/>
</svg>
